# xmcd
# 
# Track frame offsets:
#     182
#     14450
#     34150
#     53760
#     72922
#     86757
#     97925
#     110542
#     129860
#     150282
#     164125
#     179815
# 
# Disc length: 2573
# 
# Revision: 3
# Processed by: cddbd v1.5.2PL0 Copyright (c) Steve Scherf et al.
# Submitted via: BonkEnc v1.0.8
# 
DISCID=9a0a0b0c
DTITLE=Roger Whittaker - Country
DYEAR=1992
DGENRE=
TTITLE0=Make The World Go Away
TTITLE1=Leaving On A Jet Plane
TTITLE2=She Believes In Me
TTITLE3=For The Good Times
TTITLE4=Scarlet Ribbons
TTITLE5=Bule Eyes Crying In The Rain
TTITLE6=Have I Told You Lately That I Love You?
TTITLE7=Always On My Mind
TTITLE8=Funny How Time Slips Away
TTITLE9=Gentle On My Mind
TTITLE10=Are You Lonesome Tonight?
TTITLE11=Vaya Con Dios
EXTD=
EXTT0=
EXTT1=
EXTT2=
EXTT3=
EXTT4=
EXTT5=
EXTT6=
EXTT7=
EXTT8=
EXTT9=
EXTT10=
EXTT11=
PLAYORDER=
